<?xml version="1.0" encoding="utf-8"?>

<!-- License Agreement at http://iconmonstr.com/license/ -->

<!DOCTYPE svg PUBLIC "-//W3C//DTD SVG 1.1//EN" "http://www.w3.org/Graphics/SVG/1.1/DTD/svg11.dtd">
<svg version="1.1" xmlns="http://www.w3.org/2000/svg" xmlns:xlink="http://www.w3.org/1999/xlink" x="0px" y="0px"
	 width="512px" height="512px" viewBox="0 0 512 512" style="enable-background:new 0 0 512 512;" xml:space="preserve">
<path id="control-panel-icon" d="M382,71H130c-44.183,0-80,35.817-80,80s35.817,80,80,80h252c44.183,0,80-35.817,80-80
	S426.183,71,382,71z M173,191c-22.092,0-40-17.908-40-40s17.908-40,40-40s40,17.908,40,40S195.092,191,173,191z M382,311
	c27.57,0,50,22.43,50,50s-22.43,50-50,50H130c-27.57,0-50-22.43-50-50s22.43-50,50-50H382z M382,281H130c-44.183,0-80,35.816-80,80
	c0,44.182,35.817,80,80,80h252c44.183,0,80-35.818,80-80C462,316.816,426.183,281,382,281z M345,321c-22.092,0-40,17.908-40,40
	c0,22.091,17.908,40,40,40s40-17.909,40-40C385,338.908,367.092,321,345,321z"/>
</svg>
