<svg xmlns="http://www.w3.org/2000/svg" xmlns:xlink="http://www.w3.org/1999/xlink" version="1.1" x="0px" y="0px" viewBox="0 0 90 85" enable-background="new 0 0 90 85" xml:space="preserve"><path d="M63.415,76.255H26.586v3.896c0,0.327-0.033,0.646-0.095,0.954h37.018c-0.061-0.309-0.094-0.627-0.094-0.954V76.255z   M14.502,33.004V13.613c0-4.839,3.901-8.764,8.714-8.764h43.567c4.813,0,8.714,3.924,8.714,8.764v19.391  c0.399-0.037,0.803-0.062,1.211-0.062c1.218,0,2.429,0.181,3.611,0.518V13.613C80.319,6.106,74.247,0,66.783,0H23.216  C15.753,0,9.681,6.106,9.681,13.613v19.847c1.182-0.337,2.393-0.518,3.611-0.518C13.7,32.942,14.104,32.967,14.502,33.004z   M26.585,69.926v4.85h36.829v-4.85H26.585z M63.414,51.264v-4.851H26.585v4.851H63.414z M90,46.313  c0,4.507-2.232,8.604-5.809,11.049V80.15c0,2.678-2.158,4.85-4.821,4.85H68.236c-2.338,0-4.286-1.674-4.728-3.896  c-0.061-0.309-0.094-0.627-0.094-0.954V46.313c0-6.961,5.319-12.692,12.083-13.309c0.399-0.037,0.803-0.062,1.211-0.062  c1.218,0,2.429,0.181,3.611,0.518c0.188,0.054,0.379,0.101,0.565,0.164C86.337,35.439,90,40.538,90,46.313z M85.179,46.313  c0-3.405-1.99-6.333-4.858-7.696c-0.308-0.146-0.623-0.28-0.95-0.389c-0.838-0.279-1.73-0.437-2.661-0.437  c-0.412,0-0.814,0.04-1.211,0.097c-4.104,0.592-7.262,4.132-7.262,8.425V80.15H79.37V54.397c0.303-0.101,0.595-0.224,0.88-0.357  c0.023-0.011,0.046-0.021,0.07-0.031C83.188,52.644,85.179,49.717,85.179,46.313z M26.586,46.313V80.15  c0,0.327-0.033,0.646-0.095,0.954C26.051,83.326,24.103,85,21.765,85H10.631c-2.663,0-4.822-2.172-4.822-4.85V57.361  C2.233,54.917,0,50.82,0,46.313c0-5.775,3.663-10.874,9.115-12.69c0.188-0.062,0.377-0.11,0.566-0.163  c1.182-0.337,2.393-0.518,3.611-0.518c0.408,0,0.812,0.025,1.21,0.062C21.267,33.621,26.586,39.351,26.586,46.313z M21.765,46.313  c0-4.293-3.157-7.833-7.262-8.425c-0.396-0.056-0.798-0.097-1.21-0.097c-0.932,0-1.824,0.157-2.662,0.437  c-0.327,0.108-0.642,0.241-0.949,0.388c-2.87,1.364-4.86,4.292-4.86,7.697c0,3.404,1.99,6.331,4.86,7.696  c0.023,0.011,0.046,0.021,0.07,0.032c0.285,0.133,0.576,0.256,0.879,0.356V80.15h11.134V46.313z M36.963,12.701  c-1.198,0-2.17,0.978-2.17,2.183s0.972,2.183,2.17,2.183s2.17-0.978,2.17-2.183S38.162,12.701,36.963,12.701z M53.035,12.701  c-1.197,0-2.168,0.978-2.168,2.183s0.971,2.183,2.168,2.183c1.199,0,2.17-0.978,2.17-2.183S54.234,12.701,53.035,12.701z   M28.928,20.784c-1.198,0-2.17,0.976-2.17,2.181c0,1.207,0.972,2.183,2.17,2.183s2.169-0.976,2.169-2.183  C31.097,21.76,30.126,20.784,28.928,20.784z M45,20.784c-1.197,0-2.169,0.976-2.169,2.181c0,1.207,0.972,2.183,2.169,2.183  c1.2,0,2.17-0.976,2.17-2.183C47.17,21.76,46.199,20.784,45,20.784z M61.07,20.784c-1.197,0-2.168,0.976-2.168,2.181  c0,1.207,0.971,2.183,2.168,2.183c1.199,0,2.172-0.976,2.172-2.183C63.242,21.76,62.27,20.784,61.07,20.784z M36.963,28.866  c-1.198,0-2.17,0.977-2.17,2.183c0,1.205,0.972,2.182,2.17,2.182s2.17-0.977,2.17-2.182C39.133,29.843,38.162,28.866,36.963,28.866z   M53.035,28.866c-1.197,0-2.168,0.977-2.168,2.183c0,1.205,0.971,2.182,2.168,2.182c1.199,0,2.17-0.977,2.17-2.182  C55.205,29.843,54.234,28.866,53.035,28.866z"></path></svg>