<svg xmlns="http://www.w3.org/2000/svg" xmlns:xlink="http://www.w3.org/1999/xlink" version="1.1" x="0px" y="0px" viewBox="0 0 100 100" enable-background="new 0 0 100 100" xml:space="preserve"><path d="M46.7053223,96.8061523c0,0.828125-0.6713867,1.5-1.5,1.5H2.5227051c-0.8286133,0-1.5-0.671875-1.5-1.5  s0.6713867-1.5,1.5-1.5h2.6679688v-1.6396484c0-3.5283203,2.8706055-6.3984375,6.3989258-6.3984375h3.9760742  c3.5283203,0,6.3989258,2.8701172,6.3989258,6.3984375v1.6396484h3.7988281v-1.6396484  c0-3.5283203,2.8706055-6.3984375,6.3989258-6.3984375h3.9760742c3.5283203,0,6.3989258,2.8701172,6.3989258,6.3984375v1.6396484  h2.6679688C46.0339355,95.3061523,46.7053223,95.9780273,46.7053223,96.8061523z M13.5773926,86.2758789  c3.2026367,0,5.8081055-2.6054688,5.8081055-5.8076172s-2.6054688-5.8076172-5.8081055-5.8076172  c-3.2021484,0-5.8076172,2.6054688-5.8076172,5.8076172S10.3752441,86.2758789,13.5773926,86.2758789z M28.3425293,80.4682617  c0,3.2021484,2.6054688,5.8076172,5.8076172,5.8076172c3.2026367,0,5.8081055-2.6054688,5.8081055-5.8076172  s-2.6054688-5.8076172-5.8081055-5.8076172C30.947998,74.6606445,28.3425293,77.2661133,28.3425293,80.4682617z   M92.5222168,95.3061523H89.854248v-1.6396484c0-3.5283203-2.8701172-6.3984375-6.3984375-6.3984375H79.479248  c-3.5283203,0-6.3984375,2.8701172-6.3984375,6.3984375v1.6396484h-3.7988281v-1.6396484  c0-3.5283203-2.8710938-6.3984375-6.3994141-6.3984375h-3.9755859c-3.5283203,0-6.3994141,2.8701172-6.3994141,6.3984375v1.6396484  h-2.6674805c-0.8286133,0-1.5,0.671875-1.5,1.5s0.6713867,1.5,1.5,1.5h42.6821289c0.828125,0,1.5-0.671875,1.5-1.5  S93.3503418,95.3061523,92.5222168,95.3061523z M55.0866699,80.4682617c0,3.2021484,2.6054688,5.8076172,5.8085938,5.8076172  c3.2021484,0,5.8076172-2.6054688,5.8076172-5.8076172s-2.6054688-5.8076172-5.8076172-5.8076172  C57.6921387,74.6606445,55.0866699,77.2661133,55.0866699,80.4682617z M81.4675293,74.6606445  c-3.2021484,0-5.8076172,2.6054688-5.8076172,5.8076172s2.6054688,5.8076172,5.8076172,5.8076172  s5.8076172-2.6054688,5.8076172-5.8076172S84.6696777,74.6606445,81.4675293,74.6606445z M10.1149902,71.7231445h34.8959961  c0.8286133,0,1.5-0.671875,1.5-1.5s-0.6713867-1.5-1.5-1.5h-1.9985352v-1.4804688c0-2.7568359-2.2431641-5-5-5h-4.0791016  c-2.7568359,0-5,2.2431641-5,5v1.4804688H26.192627v-1.4804688c0-2.7568359-2.2431641-5-5-5h-4.0791016  c-2.7568359,0-5,2.2431641-5,5v1.4804688h-1.9985352c-0.8286133,0-1.5,0.671875-1.5,1.5S9.286377,71.7231445,10.1149902,71.7231445z   M19.1530762,61.5981445c2.71875,0,4.9306641-2.2119141,4.9306641-4.9306641s-2.2119141-4.9306641-4.9306641-4.9306641  s-4.9306641,2.2119141-4.9306641,4.9306641S16.4343262,61.5981445,19.1530762,61.5981445z M31.041748,56.6674805  c0,2.71875,2.2119141,4.9306641,4.9311523,4.9306641c2.71875,0,4.9306641-2.2119141,4.9306641-4.9306641  s-2.2119141-4.9306641-4.9306641-4.9306641C33.2536621,51.7368164,31.041748,53.9487305,31.041748,56.6674805z   M64.0026855,56.6674805c0-2.71875-2.2119141-4.9306641-4.9306641-4.9306641s-4.9306641,2.2119141-4.9306641,4.9306641  s2.2119141,4.9306641,4.9306641,4.9306641S64.0026855,59.3862305,64.0026855,56.6674805z M75.892334,51.7368164  c-2.71875,0-4.9306641,2.2119141-4.9306641,4.9306641s2.2119141,4.9306641,4.9306641,4.9306641  s4.9306641-2.2119141,4.9306641-4.9306641S78.611084,51.7368164,75.892334,51.7368164z M77.9313965,62.2426758h-4.0791016  c-2.7568359,0-5,2.2431641-5,5v1.4804688h-2.7402344v-1.4804688c0-2.7568359-2.2431641-5-5-5H57.032959  c-2.7568359,0-5,2.2431641-5,5v1.4804688h-1.9990234c-0.8286133,0-1.5,0.671875-1.5,1.5s0.6713867,1.5,1.5,1.5h34.8964844  c0.828125,0,1.5-0.671875,1.5-1.5s-0.671875-1.5-1.5-1.5h-1.9990234v-1.4804688  C82.9313965,64.4858398,80.6882324,62.2426758,77.9313965,62.2426758z M76.1901855,8.3178101v25.7750244  c1.1360474,0.2352905,1.9921875,1.2432251,1.9921875,2.4476929v1.6762695c0,1.378418-1.1210938,2.5-2.5,2.5H19.3625488  c-1.378418,0-2.5-1.121582-2.5-2.5v-1.6762695c0-1.2044067,0.8564453-2.2122192,1.9921875-2.4476318V8.317749  c-1.1357422-0.2354126-1.9921875-1.2432251-1.9921875-2.4476318V4.1938477c0-1.378418,1.121582-2.5,2.5-2.5H75.682373  c1.3789063,0,2.5,1.121582,2.5,2.5v1.6762695C78.182373,7.074585,77.3262329,8.0825195,76.1901855,8.3178101z M73.1901855,6.5317383  H21.8547363V35.878418h51.3354492V6.5317383z M31.7805176,16.3789063h17.2856445c0.8286133,0,1.5-0.6713867,1.5-1.5  s-0.6713867-1.5-1.5-1.5H31.7805176c-0.8286133,0-1.5,0.6713867-1.5,1.5S30.9519043,16.3789063,31.7805176,16.3789063z   M63.2644043,13.3789063h-8.6425781c-0.828125,0-1.5,0.6713867-1.5,1.5s0.671875,1.5,1.5,1.5h8.6425781  c0.828125,0,1.5-0.6713867,1.5-1.5S64.0925293,13.3789063,63.2644043,13.3789063z M43.0563965,19.7275391H31.7805176  c-0.8286133,0-1.5,0.6713867-1.5,1.5s0.6713867,1.5,1.5,1.5h11.2758789c0.8286133,0,1.5-0.6713867,1.5-1.5  S43.8850098,19.7275391,43.0563965,19.7275391z M43.0563965,26.0756836H31.7805176c-0.8286133,0-1.5,0.6713867-1.5,1.5  s0.6713867,1.5,1.5,1.5h11.2758789c0.8286133,0,1.5-0.6713867,1.5-1.5S43.8850098,26.0756836,43.0563965,26.0756836z   M53.1921387,26.0756836h-4.3549805c-0.8286133,0-1.5,0.6713867-1.5,1.5s0.6713867,1.5,1.5,1.5h4.3549805  c0.828125,0,1.5-0.6713867,1.5-1.5S54.0202637,26.0756836,53.1921387,26.0756836z M81.0251465,37.6079102v12.4448242  c0,0.5522461,0.4472656,1.0004883,1,1.0004883h15.1435547c0.5527344,0,1-0.4482422,1-1.0004883V37.6079102H81.0251465z   M92.3747559,25.9897461h-2.4726563c-0.8789673,0-1.6934204,0.2477417-2.4118652,0.6477051  c-0.1708374,0.0644531-0.3377686,0.1444702-0.4914551,0.2590332l-2.9453125,2.1933594l-2.2246094-2.9858398  c-0.6591797-0.8852539-1.9121094-1.0688477-2.7978516-0.4091797c-0.8867188,0.6601563-1.0693359,1.9130859-0.4091797,2.7988281  l2.3547363,3.1611328h16.3981934v-0.6650391C97.3747559,28.2329102,95.1315918,25.9897461,92.3747559,25.9897461z   M86.7302246,21.4609375c0-2.4306641,1.9775391-4.4082031,4.4082031-4.4082031s4.4082031,1.9775391,4.4082031,4.4082031  s-1.9775391,4.4082031-4.4082031,4.4082031S86.7302246,23.8916016,86.7302246,21.4609375z M89.6799927,23.5004883  c0,0.6328125,0.6529541,1.145813,1.458374,1.145813c0.8053589,0,1.458313-0.5130005,1.458313-1.145813  c0-0.0421753-0.0101318-0.0820923-0.0158081-0.1230469c-0.0791016-0.5741577-0.6907959-1.0228271-1.4425049-1.0228271  s-1.3633423,0.4486084-1.4425659,1.022644C89.6901245,23.4182739,89.6799927,23.458252,89.6799927,23.5004883z   M81.9460449,19.8588867l2.7910156,1.1669922c0.0947266,0.0395508,0.1923828,0.0581055,0.2890625,0.0581055  c0.2929688,0,0.5712891-0.1728516,0.6923828-0.4604492c0.1591797-0.3823242-0.0205078-0.8217773-0.4033203-0.9814453  l-2.7910156-1.1669922c-0.3808594-0.1601563-0.8203125,0.0195313-0.9814453,0.4023438  C81.3835449,19.2597656,81.5632324,19.6992188,81.9460449,19.8588867z M82.2351074,24.9169922  c0.0966797,0,0.1943359-0.0185547,0.2890625-0.0581055l2.7910156-1.1665039c0.3828125-0.159668,0.5625-0.5991211,0.4033203-0.980957  c-0.1611328-0.3828125-0.5996094-0.5620117-0.9814453-0.402832l-2.7910156,1.1665039  c-0.3828125,0.159668-0.5625,0.5991211-0.4033203,0.980957C81.6638184,24.7436523,81.9421387,24.9169922,82.2351074,24.9169922z   M80.2165527,34.1547852v0.953125c0,0.5522842,0.4477158,1,1,1h16.7607422c0.5522842,0,1-0.4477158,1-1v-0.953125  c0-0.5522842-0.4477158-1-1-1H81.2165527C80.6642685,33.1547852,80.2165527,33.6025009,80.2165527,34.1547852z"></path></svg>