<?xml version="1.0" encoding="utf-8"?>

<!-- The icon can be used freely in both personal and commercial projects with no attribution required, but always appreciated. 
You may NOT sub-license, resell, rent, redistribute or otherwise transfer the icon without express written permission from iconmonstr.com -->

<!DOCTYPE svg PUBLIC "-//W3C//DTD SVG 1.1//EN" "http://www.w3.org/Graphics/SVG/1.1/DTD/svg11.dtd">
<svg version="1.1" xmlns="http://www.w3.org/2000/svg" xmlns:xlink="http://www.w3.org/1999/xlink" x="0px" y="0px"
	 width="512px" height="512px" viewBox="0 0 512 512" enable-background="new 0 0 512 512" xml:space="preserve">
<path id="compass-6-icon" d="M270.572,117.05v36.2h-7.852l-0.072-0.123l-13.737-23.271v23.395h-7.482v-36.2h7.802l13.857,23.446
	V117.05H270.572z M377.592,267v-8.25h16.436v-6.6h-16.436V245H395.5v-7.1h-25.865V274.1h26.244V267H377.592z M154.453,237.9
	l-5.41,23.943l-5.64-23.943h-7.377l-5.732,23.646L125.07,237.9h-7.979l9.056,36.01l0.048,0.189h7.946l5.502-23.658l5.596,23.658
	h7.803l9.247-36.199H154.453z M243.526,395.993c2.051,1.134,6.155,2.269,10.313,2.269c9.99,0,14.634-5.185,14.634-11.287
	c0-5.184-2.97-8.531-9.396-10.908c-4.753-1.836-6.75-2.861-6.75-5.184c0-1.836,1.728-3.51,5.292-3.51
	c3.51,0,6.156,1.025,7.561,1.728l1.836-6.589c-2.16-1.025-5.131-1.836-9.289-1.836c-8.531,0-13.77,4.699-13.77,10.908
	c0,5.347,3.996,8.695,10.044,10.855c4.374,1.512,6.103,2.861,6.103,5.075c0,2.431-1.998,3.996-5.779,3.996
	c-3.51,0-6.965-1.134-9.125-2.269L243.526,395.993z M306.203,249.68c1.82,15.804-3.748,30.641-14.312,41.201
	c-10.985,10.987-25.785,15.879-40.481,14.403L156.06,355.94l50.681-95.397c-1.452-14.441,3.337-29.396,14.376-40.436
	c11.13-11.131,26.201-16.04,41.203-14.312l93.621-49.734L306.203,249.68z M271.738,240.26c-8.414-8.414-22.057-8.414-30.47,0
	c-8.414,8.414-8.414,22.057,0,30.471s22.054,8.415,30.47,0C280.153,262.316,280.153,248.675,271.738,240.26z M462,256
	c0,113.771-92.229,206-206,206S50,369.771,50,256S142.229,50,256,50S462,142.229,462,256z M422,256c0-91.756-74.26-166-166-166
	c-91.756,0-166,74.259-166,166c0,91.755,74.259,166,166,166C347.755,422,422,347.741,422,256z"/>
</svg>
