<?xml version="1.0" encoding="UTF-8" standalone="no"?>
<!-- The icon can be used freely in both personal and commercial projects with no attribution required, but always appreciated. 
You may NOT sub-license, resell, rent, redistribute or otherwise transfer the icon without express written permission from iconmonstr.com -->

<svg
   xmlns:dc="http://purl.org/dc/elements/1.1/"
   xmlns:cc="http://creativecommons.org/ns#"
   xmlns:rdf="http://www.w3.org/1999/02/22-rdf-syntax-ns#"
   xmlns:svg="http://www.w3.org/2000/svg"
   xmlns="http://www.w3.org/2000/svg"
   xmlns:sodipodi="http://sodipodi.sourceforge.net/DTD/sodipodi-0.dtd"
   xmlns:inkscape="http://www.inkscape.org/namespaces/inkscape"
   version="1.1"
   x="0px"
   y="0px"
   width="512px"
   height="512px"
   viewBox="0 0 512 512"
   enable-background="new 0 0 512 512"
   xml:space="preserve"
   id="svg4199"
   inkscape:version="0.91 r13725"
   sodipodi:docname="iconmonstr-map-edit-icon.svg"><metadata
     id="metadata4206"><rdf:RDF><cc:Work
         rdf:about=""><dc:format>image/svg+xml</dc:format><dc:type
           rdf:resource="http://purl.org/dc/dcmitype/StillImage" /><dc:title></dc:title></cc:Work></rdf:RDF></metadata><defs
     id="defs4204" /><sodipodi:namedview
     pagecolor="#ffffff"
     bordercolor="#666666"
     borderopacity="1"
     objecttolerance="10"
     gridtolerance="10"
     guidetolerance="10"
     inkscape:pageopacity="0"
     inkscape:pageshadow="2"
     inkscape:window-width="1916"
     inkscape:window-height="1168"
     id="namedview4202"
     showgrid="false"
     inkscape:zoom="2"
     inkscape:cx="379.32348"
     inkscape:cy="336"
     inkscape:window-x="0"
     inkscape:window-y="0"
     inkscape:window-maximized="0"
     inkscape:current-layer="svg4199" /><g
     transform="translate(10,-15)"
     style="font-style:normal;font-variant:normal;font-weight:normal;font-stretch:normal;font-size:263.26000977px;line-height:125%;font-family:'Clear Sans';-inkscape-font-specification:'Clear Sans';letter-spacing:0px;word-spacing:0px;fill:#000000;fill-opacity:1;stroke:none;stroke-width:1px;stroke-linecap:butt;stroke-linejoin:miter;stroke-opacity:1"
     id="flowRoot4212"><path
       id="path4221"
       style="font-style:normal;font-variant:normal;font-weight:bold;font-stretch:normal;font-family:'Clear Sans';-inkscape-font-specification:'Clear Sans Bold'"
       d="m 419.34152,153.29481 0,61.31593 -26.35171,0 0,-61.31593 -61.57302,0 0,-26.35171 61.57302,0 0,-61.573019 26.35171,0 0,61.573019 61.31593,0 0,26.35171 -61.31593,0 z M 342.475,327.059 c -7.611,0 -15.009,-1.527 -21.987,-4.541 l 8.197,-18.99 c 4.376,1.889 9.015,2.846 13.79,2.846 3.912,0 7.766,-0.65 11.452,-1.936 l 6.803,19.533 c -5.879,2.049 -12.022,3.088 -18.255,3.088 z m -191.732,-0.387 c -6.571,0 -13.026,-1.152 -19.186,-3.424 l 7.152,-19.406 c 3.862,1.424 7.912,2.145 12.033,2.145 4.562,0 9.011,-0.877 13.223,-2.605 l 7.855,19.135 c -6.715,2.756 -13.807,4.155 -21.077,4.155 z m 152.207,-13.752 -29.136,-16.592 10.235,-17.975 29.137,16.592 z m -113.324,-0.346 -10.633,-17.742 28.761,-17.236 10.633,17.744 z m 68.777,-24.722 c -4.266,-1.781 -8.776,-2.686 -13.407,-2.686 -4.053,0.002 -8.039,0.701 -11.845,2.078 l -7.037,-19.451 c 6.069,-2.195 12.421,-3.31 18.88,-3.311 7.383,0 14.573,1.44 21.378,4.279 z m 128.652,-2.87 c -9.389,0 -17,7.611 -17,17 0,9.389 7.611,17 17,17 9.389,0 17,-7.611 17,-17 0,-9.389 -7.612,-17 -17,-17 z m -282,0 c -9.389,0 -17,7.611 -17,17 0,9.389 7.611,17 17,17 9.389,0 17,-7.611 17,-17 0,-9.389 -7.612,-17 -17,-17 z m 316.895,-50.385 0,162.395 -74.962,40.703 0,-90.213 -15.023,0 0,88.572 -81.806,-52.91 0,-75.412 -14.328,0 0,75.412 -79.801,52.91 0,-88.572 -15.027,0 0,90.213 -70.953,-40.703 0,-226.932 70.953,37.941 0,75.981 15.027,0 0,-75.292 79.801,-41.385 0,78.927 14.328,0 0,-78.927 70.951,35.894 -0.014,-33.366 L 242.995,129.6 149.184,178.343 40,120.243 l 0,294.277 109.185,62.328 93.811,-62.32 95.814,62.32 L 452,414.52 452,234.932 Z" /></g></svg>