<?xml version="1.0" encoding="utf-8"?>

<!-- The icon can be used freely in both personal and commercial projects with no attribution required, but always appreciated. You may NOT sub-license, resell, rent, redistribute or otherwise transfer the icon without express written permission from iconmonstr.com -->

<!DOCTYPE svg PUBLIC "-//W3C//DTD SVG 1.1//EN" "http://www.w3.org/Graphics/SVG/1.1/DTD/svg11.dtd">
<svg version="1.1" xmlns="http://www.w3.org/2000/svg" xmlns:xlink="http://www.w3.org/1999/xlink" x="0px" y="0px"
	 width="512px" height="512px" viewBox="0 0 512 512" enable-background="new 0 0 512 512" xml:space="preserve">
<path id="clipboard-4-icon" d="M373.529,81.667c-9.092,0-17.814-3.598-24.264-10.008L327.5,50h-143l-21.767,21.658
	c-6.448,6.411-15.171,10.009-24.263,10.009H79.5V462h353V81.667H373.529z M392,421.5H119v-300h62.333l24.917,25H307.5l25.25-25H392
	V421.5z M162.874,277.426l16.356-15.121c19.133,9.258,31.266,16.302,52.771,31.631c40.426-45.877,67.139-69.152,116.792-100.045
	l5.322,12.242c-40.947,35.734-70.937,75.535-114.119,152.977C213.361,327.741,195.585,307.746,162.874,277.426z"/>
</svg>
