<svg xmlns="http://www.w3.org/2000/svg" width="24" height="24" viewBox="0 0 24 24"><path d="M20.931 14.484c-.201 3.219-2.294 3.718-2.294 5.904 0 1.443 1.173 2.612 2.62 2.612 1.477 0 2.743-1.378 2.743-3.284 0-1.548-.834-3.443-3.069-5.232zm-.291 4.08c-.03-.537.677-.87.88-1.859.163.232.368.637.391 1.077.067 1.285-1.231 1.566-1.271.782zm-2.054-3.549c-2.316-5.162-8.498-2.12-11.979-4.423-1.76-1.165-2.595-2.87-2.528-4.64-1.224-.294-2.638-.513-4.079-.635l1.136-1.639c4.137.806 8.424 2.351 11.222 4.481-1.087-1.938-4.494-4.183-7.324-5.098 1.134-1.409 2.686-2.061 4.343-2.061 4.895 0 11.054 5.653 9.209 14.015z"/></svg>