<?xml version="1.0" encoding="UTF-8" standalone="no"?>
<svg
   xmlns:dc="http://purl.org/dc/elements/1.1/"
   xmlns:cc="http://creativecommons.org/ns#"
   xmlns:rdf="http://www.w3.org/1999/02/22-rdf-syntax-ns#"
   xmlns:svg="http://www.w3.org/2000/svg"
   xmlns="http://www.w3.org/2000/svg"
   xmlns:sodipodi="http://sodipodi.sourceforge.net/DTD/sodipodi-0.dtd"
   xmlns:inkscape="http://www.inkscape.org/namespaces/inkscape"
   width="24"
   height="24"
   viewBox="0 0 24 24"
   version="1.1"
   id="svg4"
   sodipodi:docname="iconmonstr-clipboard-tools_hackerfleet.svg"
   inkscape:version="0.92.1 r15371">
  <metadata
     id="metadata10">
    <rdf:RDF>
      <cc:Work
         rdf:about="">
        <dc:format>image/svg+xml</dc:format>
        <dc:type
           rdf:resource="http://purl.org/dc/dcmitype/StillImage" />
        <dc:title></dc:title>
      </cc:Work>
    </rdf:RDF>
  </metadata>
  <defs
     id="defs8" />
  <sodipodi:namedview
     pagecolor="#ffffff"
     bordercolor="#666666"
     borderopacity="1"
     objecttolerance="10"
     gridtolerance="10"
     guidetolerance="10"
     inkscape:pageopacity="0"
     inkscape:pageshadow="2"
     inkscape:window-width="1916"
     inkscape:window-height="1168"
     id="namedview6"
     showgrid="false"
     showguides="true"
     inkscape:guide-bbox="true"
     inkscape:zoom="13.906433"
     inkscape:cx="14.034887"
     inkscape:cy="10.248991"
     inkscape:window-x="0"
     inkscape:window-y="0"
     inkscape:window-maximized="0"
     inkscape:current-layer="svg4">
    <sodipodi:guide
       position="18.984019,1.9954793"
       orientation="0,1"
       id="guide5049"
       inkscape:locked="false" />
    <sodipodi:guide
       position="11.990853,23.145762"
       orientation="1,0"
       id="guide5057"
       inkscape:locked="false" />
  </sodipodi:namedview>
  <path
     d="M 19,2 C 17.771,2 16.82,0.916 16,0 H 8 C 7.18,0.916 6.229,2 5,2 H 2 V 24 H 22 V 2 Z m -7,0 c 0.552,0 1,0.448 1,1 0,0.552 -0.448,1 -1,1 C 11.448,4 11,3.552 11,3 11,2.448 11.448,2 12,2 Z M 4,22 V 4 h 4 l 2.102,2 H 14 l 2,-2 h 4 v 18 z"
     id="path2"
     inkscape:connector-curvature="0"
     sodipodi:nodetypes="sccsccccssssssccccccccc" />
  <path
     inkscape:connector-curvature="0"
     d="M 17.409367,17.851415 11.656001,12.098049 C 11.387719,11.829768 11.250448,11.457448 11.278865,11.07935 11.334257,10.364092 11.088612,9.6300499 10.542415,9.0824084 10.046311,8.5872674 9.3980039,8.3421051 8.7492151,8.3421051 c -0.2441996,0 -0.4888795,0.03468 -0.7248905,0.1040374 L 9.5511697,9.9729882 C 9.7168591,10.738338 8.6076081,11.860111 7.8331076,11.691051 L 6.3067437,10.164205 c -0.069836,0.236974 -0.105001,0.481655 -0.105001,0.726817 0,0.648789 0.245644,1.296133 0.740785,1.792237 0.5466783,0.54716 1.2812018,0.792323 1.9969404,0.736933 0.3771359,-0.0289 0.7499369,0.108854 1.0177369,0.377135 l 5.753848,5.752884 c 0.225414,0.225415 0.530783,0.351609 0.849157,0.351609 0.658903,0 1.201247,-0.533674 1.201247,-1.201248 0,-0.307295 -0.117524,-0.614591 -0.35209,-0.849157 z m -0.852047,1.327923 c -0.266355,0 -0.481655,-0.215782 -0.481655,-0.481655 0,-0.265874 0.2153,-0.481655 0.481655,-0.481655 0.266355,0 0.481655,0.215781 0.481655,0.481655 0,0.265873 -0.2153,0.481655 -0.481655,0.481655 z m -3.821931,-7.36402 2.565775,-2.5614404 c 0.281286,-0.2817681 0.649271,-0.422893 1.017737,-0.422893 0.367984,0 0.73645,0.1406433 1.017736,0.422893 0.283695,0.2827313 0.42482,0.6536055 0.42482,1.0235164 0,0.367984 -0.140161,0.735968 -0.420485,1.016292 l -2.565293,2.561439 z m -1.700241,4.42159 -2.5176088,2.497381 c -0.109336,0.11078 -0.2037407,0.235047 -0.2764699,0.3728 l -0.1449788,0.27936 -1.0114746,0.515371 -0.4012183,-0.401701 0.4936957,-1.03363 0.2793604,-0.14546 C 7.594207,18.248783 7.7266621,18.162564 7.8369605,18.052266 L 10.35457,15.554885 Z"
     id="path12"
     style="stroke-width:0.48165476" />
</svg>
